<?xml version="1.0" standalone="no"?>
<!DOCTYPE svg PUBLIC "-//W3C//DTD SVG 20010904//EN"
 "http://www.w3.org/TR/2001/REC-SVG-20010904/DTD/svg10.dtd">
<svg version="1.0" xmlns="http://www.w3.org/2000/svg"
 width="862.000000pt" height="862.000000pt" viewBox="0 0 862.000000 862.000000"
 preserveAspectRatio="xMidYMid meet">
<metadata>
Created by potrace 1.14, written by Peter Selinger 2001-2017
</metadata>
<g transform="translate(0.000000,862.000000) scale(0.100000,-0.100000)"
fill="#000000" stroke="none">
<path d="M1377 8198 c-21 -6 -54 -26 -73 -45 -29 -29 -34 -40 -34 -81 0 -41 7
-57 46 -113 62 -86 139 -248 160 -334 9 -38 16 -110 17 -160 1 -156 -27 -252
-148 -505 -129 -269 -194 -459 -241 -706 -25 -134 -31 -541 -10 -701 77 -589
404 -1139 858 -1445 l38 -25 -82 -63 c-348 -270 -704 -816 -782 -1202 -51
-247 22 -436 191 -498 l60 -22 -23 -56 c-29 -73 -54 -196 -54 -264 0 -207 131
-344 365 -380 58 -9 84 -8 154 6 46 10 101 26 122 37 49 25 49 25 38 -13 -5
-18 -12 -78 -16 -133 -15 -256 99 -411 330 -447 263 -40 471 122 571 445 5 16
13 13 62 -24 31 -23 107 -74 168 -113 l113 -72 -43 -37 c-92 -80 -130 -222
-83 -307 21 -36 64 -70 91 -70 10 0 13 -19 13 -77 1 -60 6 -90 24 -131 26 -58
87 -117 131 -127 48 -11 108 13 155 59 l43 44 7 -35 c8 -45 76 -118 122 -134
19 -6 62 -9 95 -7 56 4 64 8 99 45 29 32 44 62 69 142 17 55 41 112 53 126
l22 26 106 -85 c58 -46 138 -119 177 -161 l71 -76 93 74 c88 69 257 195 286
211 36 21 96 -62 132 -184 41 -138 83 -180 183 -180 94 0 163 47 193 130 l17
47 34 -38 c47 -52 111 -76 162 -60 57 17 87 45 122 116 27 54 31 74 31 139 -1
67 1 76 18 76 30 0 77 47 96 95 35 93 -18 231 -118 304 l-36 27 82 61 c74 54
84 58 94 43 18 -30 129 -97 194 -119 96 -31 164 -36 249 -17 206 46 363 232
371 439 l2 54 43 -33 c83 -64 193 -65 317 -4 230 114 288 325 157 572 l-30 55
74 5 c182 12 330 155 391 379 25 88 25 289 1 379 -45 165 -152 325 -357 531
-157 158 -338 307 -547 452 l-133 91 72 66 c401 363 617 789 678 1340 17 149
15 508 -4 668 -45 385 -165 754 -324 1000 -94 146 -84 252 58 586 112 261 115
311 25 356 -45 22 -62 25 -160 24 -92 0 -123 -5 -188 -27 -146 -51 -306 -141
-497 -282 -126 -93 -162 -109 -245 -109 -59 0 -87 7 -179 43 -606 236 -1549
331 -2141 215 -177 -35 -340 -83 -714 -213 -216 -75 -249 -80 -338 -57 -82 22
-148 57 -305 160 -371 244 -666 350 -841 304z"/>
</g>
</svg>
